<mxfile host="app.diagrams.net" agent="Mozilla/5.0 (X11; Linux x86_64) AppleWebKit/537.36 (KHTML, like Gecko) Chrome/136.0.0.0 Safari/537.36" version="27.1.4">
  <diagram name="Page-1" id="X-fpDceZRT9b2XnnG_sJ">
    <mxGraphModel dx="2708" dy="2696" grid="1" gridSize="10" guides="1" tooltips="1" connect="1" arrows="1" fold="1" page="1" pageScale="1" pageWidth="850" pageHeight="1100" math="0" shadow="0">
      <root>
        <mxCell id="0" />
        <mxCell id="1" parent="0" />
        <mxCell id="1VugjeR8jfL0UXTWfKwZ-1" value="0" style="rounded=0;whiteSpace=wrap;html=1;strokeWidth=4;fontSize=68;fillColor=#bac8d3;strokeColor=#23445d;" vertex="1" parent="1">
          <mxGeometry x="700" y="-60" width="120" height="120" as="geometry" />
        </mxCell>
        <mxCell id="1VugjeR8jfL0UXTWfKwZ-2" value="0" style="rounded=0;whiteSpace=wrap;html=1;strokeWidth=4;fontSize=68;" vertex="1" parent="1">
          <mxGeometry x="820" y="-60" width="120" height="120" as="geometry" />
        </mxCell>
        <mxCell id="1VugjeR8jfL0UXTWfKwZ-3" value="0" style="rounded=0;whiteSpace=wrap;html=1;strokeWidth=4;fontSize=68;" vertex="1" parent="1">
          <mxGeometry x="940" y="-60" width="120" height="120" as="geometry" />
        </mxCell>
        <mxCell id="1VugjeR8jfL0UXTWfKwZ-4" value="0" style="rounded=0;whiteSpace=wrap;html=1;strokeWidth=4;fontSize=68;" vertex="1" parent="1">
          <mxGeometry x="1060" y="-60" width="120" height="120" as="geometry" />
        </mxCell>
        <mxCell id="1VugjeR8jfL0UXTWfKwZ-5" value="0" style="rounded=0;whiteSpace=wrap;html=1;strokeWidth=4;fontSize=68;" vertex="1" parent="1">
          <mxGeometry x="1180" y="-60" width="120" height="120" as="geometry" />
        </mxCell>
        <mxCell id="1VugjeR8jfL0UXTWfKwZ-6" value="0" style="text;html=1;align=center;verticalAlign=middle;whiteSpace=wrap;rounded=0;fontSize=32;" vertex="1" parent="1">
          <mxGeometry x="730" y="-100" width="60" height="30" as="geometry" />
        </mxCell>
        <mxCell id="1VugjeR8jfL0UXTWfKwZ-7" value="1" style="text;html=1;align=center;verticalAlign=middle;whiteSpace=wrap;rounded=0;fontSize=32;" vertex="1" parent="1">
          <mxGeometry x="850" y="-100" width="60" height="30" as="geometry" />
        </mxCell>
        <mxCell id="1VugjeR8jfL0UXTWfKwZ-8" value="2" style="text;html=1;align=center;verticalAlign=middle;whiteSpace=wrap;rounded=0;fontSize=32;" vertex="1" parent="1">
          <mxGeometry x="970" y="-100" width="60" height="30" as="geometry" />
        </mxCell>
        <mxCell id="1VugjeR8jfL0UXTWfKwZ-9" value="3" style="text;html=1;align=center;verticalAlign=middle;whiteSpace=wrap;rounded=0;fontSize=32;" vertex="1" parent="1">
          <mxGeometry x="1090" y="-100" width="60" height="30" as="geometry" />
        </mxCell>
        <mxCell id="1VugjeR8jfL0UXTWfKwZ-10" value="4" style="text;html=1;align=center;verticalAlign=middle;whiteSpace=wrap;rounded=0;fontSize=32;" vertex="1" parent="1">
          <mxGeometry x="1210" y="-100" width="60" height="30" as="geometry" />
        </mxCell>
        <mxCell id="1VugjeR8jfL0UXTWfKwZ-11" value="0" style="rounded=0;whiteSpace=wrap;html=1;strokeWidth=4;fontSize=68;" vertex="1" parent="1">
          <mxGeometry x="1300" y="-60" width="120" height="120" as="geometry" />
        </mxCell>
        <mxCell id="1VugjeR8jfL0UXTWfKwZ-12" value="5" style="text;html=1;align=center;verticalAlign=middle;whiteSpace=wrap;rounded=0;fontSize=32;" vertex="1" parent="1">
          <mxGeometry x="1330" y="-100" width="60" height="30" as="geometry" />
        </mxCell>
        <mxCell id="1VugjeR8jfL0UXTWfKwZ-13" value="0" style="rounded=0;whiteSpace=wrap;html=1;strokeWidth=4;fontSize=68;" vertex="1" parent="1">
          <mxGeometry x="1420" y="-60" width="120" height="120" as="geometry" />
        </mxCell>
        <mxCell id="1VugjeR8jfL0UXTWfKwZ-14" value="6" style="text;html=1;align=center;verticalAlign=middle;whiteSpace=wrap;rounded=0;fontSize=32;" vertex="1" parent="1">
          <mxGeometry x="1450" y="-100" width="60" height="30" as="geometry" />
        </mxCell>
        <mxCell id="1VugjeR8jfL0UXTWfKwZ-15" value="tickets" style="text;html=1;align=center;verticalAlign=middle;whiteSpace=wrap;rounded=0;fontSize=48;" vertex="1" parent="1">
          <mxGeometry x="560" y="-15" width="60" height="30" as="geometry" />
        </mxCell>
        <mxCell id="1VugjeR8jfL0UXTWfKwZ-16" value="0" style="rounded=0;whiteSpace=wrap;html=1;strokeWidth=4;fontSize=68;fillColor=#bac8d3;strokeColor=#23445d;" vertex="1" parent="1">
          <mxGeometry x="200" y="320" width="120" height="120" as="geometry" />
        </mxCell>
        <mxCell id="1VugjeR8jfL0UXTWfKwZ-17" value="0" style="rounded=0;whiteSpace=wrap;html=1;strokeWidth=4;fontSize=68;" vertex="1" parent="1">
          <mxGeometry x="320" y="320" width="120" height="120" as="geometry" />
        </mxCell>
        <mxCell id="1VugjeR8jfL0UXTWfKwZ-18" value="0" style="rounded=0;whiteSpace=wrap;html=1;strokeWidth=4;fontSize=68;" vertex="1" parent="1">
          <mxGeometry x="440" y="320" width="120" height="120" as="geometry" />
        </mxCell>
        <mxCell id="1VugjeR8jfL0UXTWfKwZ-19" value="0" style="rounded=0;whiteSpace=wrap;html=1;strokeWidth=4;fontSize=68;" vertex="1" parent="1">
          <mxGeometry x="560" y="320" width="120" height="120" as="geometry" />
        </mxCell>
        <mxCell id="1VugjeR8jfL0UXTWfKwZ-20" value="0" style="rounded=0;whiteSpace=wrap;html=1;strokeWidth=4;fontSize=68;" vertex="1" parent="1">
          <mxGeometry x="680" y="320" width="120" height="120" as="geometry" />
        </mxCell>
        <mxCell id="1VugjeR8jfL0UXTWfKwZ-21" value="0" style="text;html=1;align=center;verticalAlign=middle;whiteSpace=wrap;rounded=0;fontSize=32;" vertex="1" parent="1">
          <mxGeometry x="230" y="280" width="60" height="30" as="geometry" />
        </mxCell>
        <mxCell id="1VugjeR8jfL0UXTWfKwZ-22" value="1" style="text;html=1;align=center;verticalAlign=middle;whiteSpace=wrap;rounded=0;fontSize=32;" vertex="1" parent="1">
          <mxGeometry x="350" y="280" width="60" height="30" as="geometry" />
        </mxCell>
        <mxCell id="1VugjeR8jfL0UXTWfKwZ-23" value="2" style="text;html=1;align=center;verticalAlign=middle;whiteSpace=wrap;rounded=0;fontSize=32;" vertex="1" parent="1">
          <mxGeometry x="470" y="280" width="60" height="30" as="geometry" />
        </mxCell>
        <mxCell id="1VugjeR8jfL0UXTWfKwZ-24" value="3" style="text;html=1;align=center;verticalAlign=middle;whiteSpace=wrap;rounded=0;fontSize=32;" vertex="1" parent="1">
          <mxGeometry x="590" y="280" width="60" height="30" as="geometry" />
        </mxCell>
        <mxCell id="1VugjeR8jfL0UXTWfKwZ-25" value="4" style="text;html=1;align=center;verticalAlign=middle;whiteSpace=wrap;rounded=0;fontSize=32;" vertex="1" parent="1">
          <mxGeometry x="710" y="280" width="60" height="30" as="geometry" />
        </mxCell>
        <mxCell id="1VugjeR8jfL0UXTWfKwZ-26" value="0" style="rounded=0;whiteSpace=wrap;html=1;strokeWidth=4;fontSize=68;" vertex="1" parent="1">
          <mxGeometry x="800" y="320" width="120" height="120" as="geometry" />
        </mxCell>
        <mxCell id="1VugjeR8jfL0UXTWfKwZ-27" value="5" style="text;html=1;align=center;verticalAlign=middle;whiteSpace=wrap;rounded=0;fontSize=32;" vertex="1" parent="1">
          <mxGeometry x="830" y="280" width="60" height="30" as="geometry" />
        </mxCell>
        <mxCell id="1VugjeR8jfL0UXTWfKwZ-28" value="1" style="rounded=0;whiteSpace=wrap;html=1;strokeWidth=4;fontSize=68;" vertex="1" parent="1">
          <mxGeometry x="920" y="320" width="120" height="120" as="geometry" />
        </mxCell>
        <mxCell id="1VugjeR8jfL0UXTWfKwZ-29" value="6" style="text;html=1;align=center;verticalAlign=middle;whiteSpace=wrap;rounded=0;fontSize=32;" vertex="1" parent="1">
          <mxGeometry x="950" y="280" width="60" height="30" as="geometry" />
        </mxCell>
        <mxCell id="1VugjeR8jfL0UXTWfKwZ-31" value="0" style="rounded=0;whiteSpace=wrap;html=1;strokeWidth=4;fontSize=68;fillColor=#bac8d3;strokeColor=#23445d;" vertex="1" parent="1">
          <mxGeometry x="720" y="3050" width="120" height="120" as="geometry" />
        </mxCell>
        <mxCell id="1VugjeR8jfL0UXTWfKwZ-32" value="2" style="rounded=0;whiteSpace=wrap;html=1;strokeWidth=4;fontSize=68;fillColor=#fad9d5;strokeColor=#ae4132;" vertex="1" parent="1">
          <mxGeometry x="840" y="3050" width="120" height="120" as="geometry" />
        </mxCell>
        <mxCell id="1VugjeR8jfL0UXTWfKwZ-33" value="2" style="rounded=0;whiteSpace=wrap;html=1;strokeWidth=4;fontSize=68;fillColor=#fad9d5;strokeColor=#ae4132;" vertex="1" parent="1">
          <mxGeometry x="960" y="3050" width="120" height="120" as="geometry" />
        </mxCell>
        <mxCell id="1VugjeR8jfL0UXTWfKwZ-34" value="2" style="rounded=0;whiteSpace=wrap;html=1;strokeWidth=4;fontSize=68;fillColor=#fad9d5;strokeColor=#ae4132;" vertex="1" parent="1">
          <mxGeometry x="1080" y="3050" width="120" height="120" as="geometry" />
        </mxCell>
        <mxCell id="1VugjeR8jfL0UXTWfKwZ-35" value="1" style="rounded=0;whiteSpace=wrap;html=1;strokeWidth=4;fontSize=68;" vertex="1" parent="1">
          <mxGeometry x="1200" y="3050" width="120" height="120" as="geometry" />
        </mxCell>
        <mxCell id="1VugjeR8jfL0UXTWfKwZ-36" value="0" style="text;html=1;align=center;verticalAlign=middle;whiteSpace=wrap;rounded=0;fontSize=32;" vertex="1" parent="1">
          <mxGeometry x="750" y="3010" width="60" height="30" as="geometry" />
        </mxCell>
        <mxCell id="1VugjeR8jfL0UXTWfKwZ-37" value="1" style="text;html=1;align=center;verticalAlign=middle;whiteSpace=wrap;rounded=0;fontSize=32;" vertex="1" parent="1">
          <mxGeometry x="870" y="3010" width="60" height="30" as="geometry" />
        </mxCell>
        <mxCell id="1VugjeR8jfL0UXTWfKwZ-38" value="2" style="text;html=1;align=center;verticalAlign=middle;whiteSpace=wrap;rounded=0;fontSize=32;" vertex="1" parent="1">
          <mxGeometry x="990" y="3010" width="60" height="30" as="geometry" />
        </mxCell>
        <mxCell id="1VugjeR8jfL0UXTWfKwZ-39" value="3" style="text;html=1;align=center;verticalAlign=middle;whiteSpace=wrap;rounded=0;fontSize=32;" vertex="1" parent="1">
          <mxGeometry x="1110" y="3010" width="60" height="30" as="geometry" />
        </mxCell>
        <mxCell id="1VugjeR8jfL0UXTWfKwZ-40" value="4" style="text;html=1;align=center;verticalAlign=middle;whiteSpace=wrap;rounded=0;fontSize=32;" vertex="1" parent="1">
          <mxGeometry x="1230" y="3010" width="60" height="30" as="geometry" />
        </mxCell>
        <mxCell id="1VugjeR8jfL0UXTWfKwZ-41" value="0" style="rounded=0;whiteSpace=wrap;html=1;strokeWidth=4;fontSize=68;" vertex="1" parent="1">
          <mxGeometry x="1320" y="3050" width="120" height="120" as="geometry" />
        </mxCell>
        <mxCell id="1VugjeR8jfL0UXTWfKwZ-42" value="5" style="text;html=1;align=center;verticalAlign=middle;whiteSpace=wrap;rounded=0;fontSize=32;" vertex="1" parent="1">
          <mxGeometry x="1350" y="3010" width="60" height="30" as="geometry" />
        </mxCell>
        <mxCell id="1VugjeR8jfL0UXTWfKwZ-43" value="3" style="rounded=0;whiteSpace=wrap;html=1;strokeWidth=4;fontSize=68;fillColor=#fad9d5;strokeColor=#ae4132;" vertex="1" parent="1">
          <mxGeometry x="1440" y="3050" width="120" height="120" as="geometry" />
        </mxCell>
        <mxCell id="1VugjeR8jfL0UXTWfKwZ-44" value="6" style="text;html=1;align=center;verticalAlign=middle;whiteSpace=wrap;rounded=0;fontSize=32;" vertex="1" parent="1">
          <mxGeometry x="1470" y="3010" width="60" height="30" as="geometry" />
        </mxCell>
        <mxCell id="1VugjeR8jfL0UXTWfKwZ-45" value="id_ticket = 6" style="text;html=1;align=center;verticalAlign=middle;whiteSpace=wrap;rounded=0;fontSize=48;" vertex="1" parent="1">
          <mxGeometry x="470" y="620" width="300" height="30" as="geometry" />
        </mxCell>
        <mxCell id="1VugjeR8jfL0UXTWfKwZ-47" value="" style="endArrow=classic;html=1;rounded=0;exitX=0.5;exitY=-0.333;exitDx=0;exitDy=0;exitPerimeter=0;entryX=0.5;entryY=1;entryDx=0;entryDy=0;strokeWidth=4;" edge="1" parent="1" source="1VugjeR8jfL0UXTWfKwZ-45" target="1VugjeR8jfL0UXTWfKwZ-28">
          <mxGeometry width="50" height="50" relative="1" as="geometry">
            <mxPoint x="770" y="380" as="sourcePoint" />
            <mxPoint x="820" y="330" as="targetPoint" />
          </mxGeometry>
        </mxCell>
        <mxCell id="1VugjeR8jfL0UXTWfKwZ-96" value="0" style="rounded=0;whiteSpace=wrap;html=1;strokeWidth=4;fontSize=68;fillColor=#bac8d3;strokeColor=#23445d;" vertex="1" parent="1">
          <mxGeometry x="1160" y="320" width="120" height="120" as="geometry" />
        </mxCell>
        <mxCell id="1VugjeR8jfL0UXTWfKwZ-97" value="1" style="rounded=0;whiteSpace=wrap;html=1;strokeWidth=4;fontSize=68;" vertex="1" parent="1">
          <mxGeometry x="1280" y="320" width="120" height="120" as="geometry" />
        </mxCell>
        <mxCell id="1VugjeR8jfL0UXTWfKwZ-98" value="0" style="rounded=0;whiteSpace=wrap;html=1;strokeWidth=4;fontSize=68;" vertex="1" parent="1">
          <mxGeometry x="1400" y="320" width="120" height="120" as="geometry" />
        </mxCell>
        <mxCell id="1VugjeR8jfL0UXTWfKwZ-99" value="0" style="rounded=0;whiteSpace=wrap;html=1;strokeWidth=4;fontSize=68;" vertex="1" parent="1">
          <mxGeometry x="1520" y="320" width="120" height="120" as="geometry" />
        </mxCell>
        <mxCell id="1VugjeR8jfL0UXTWfKwZ-100" value="0" style="rounded=0;whiteSpace=wrap;html=1;strokeWidth=4;fontSize=68;" vertex="1" parent="1">
          <mxGeometry x="1640" y="320" width="120" height="120" as="geometry" />
        </mxCell>
        <mxCell id="1VugjeR8jfL0UXTWfKwZ-101" value="0" style="text;html=1;align=center;verticalAlign=middle;whiteSpace=wrap;rounded=0;fontSize=32;" vertex="1" parent="1">
          <mxGeometry x="1190" y="280" width="60" height="30" as="geometry" />
        </mxCell>
        <mxCell id="1VugjeR8jfL0UXTWfKwZ-102" value="1" style="text;html=1;align=center;verticalAlign=middle;whiteSpace=wrap;rounded=0;fontSize=32;" vertex="1" parent="1">
          <mxGeometry x="1310" y="280" width="60" height="30" as="geometry" />
        </mxCell>
        <mxCell id="1VugjeR8jfL0UXTWfKwZ-103" value="2" style="text;html=1;align=center;verticalAlign=middle;whiteSpace=wrap;rounded=0;fontSize=32;" vertex="1" parent="1">
          <mxGeometry x="1430" y="280" width="60" height="30" as="geometry" />
        </mxCell>
        <mxCell id="1VugjeR8jfL0UXTWfKwZ-104" value="3" style="text;html=1;align=center;verticalAlign=middle;whiteSpace=wrap;rounded=0;fontSize=32;" vertex="1" parent="1">
          <mxGeometry x="1550" y="280" width="60" height="30" as="geometry" />
        </mxCell>
        <mxCell id="1VugjeR8jfL0UXTWfKwZ-105" value="4" style="text;html=1;align=center;verticalAlign=middle;whiteSpace=wrap;rounded=0;fontSize=32;" vertex="1" parent="1">
          <mxGeometry x="1670" y="280" width="60" height="30" as="geometry" />
        </mxCell>
        <mxCell id="1VugjeR8jfL0UXTWfKwZ-106" value="0" style="rounded=0;whiteSpace=wrap;html=1;strokeWidth=4;fontSize=68;" vertex="1" parent="1">
          <mxGeometry x="1760" y="320" width="120" height="120" as="geometry" />
        </mxCell>
        <mxCell id="1VugjeR8jfL0UXTWfKwZ-107" value="5" style="text;html=1;align=center;verticalAlign=middle;whiteSpace=wrap;rounded=0;fontSize=32;" vertex="1" parent="1">
          <mxGeometry x="1790" y="280" width="60" height="30" as="geometry" />
        </mxCell>
        <mxCell id="1VugjeR8jfL0UXTWfKwZ-108" value="1" style="rounded=0;whiteSpace=wrap;html=1;strokeWidth=4;fontSize=68;" vertex="1" parent="1">
          <mxGeometry x="1880" y="320" width="120" height="120" as="geometry" />
        </mxCell>
        <mxCell id="1VugjeR8jfL0UXTWfKwZ-109" value="6" style="text;html=1;align=center;verticalAlign=middle;whiteSpace=wrap;rounded=0;fontSize=32;" vertex="1" parent="1">
          <mxGeometry x="1910" y="280" width="60" height="30" as="geometry" />
        </mxCell>
        <mxCell id="1VugjeR8jfL0UXTWfKwZ-110" value="id_ticket = 1" style="text;html=1;align=center;verticalAlign=middle;whiteSpace=wrap;rounded=0;fontSize=48;" vertex="1" parent="1">
          <mxGeometry x="1430" y="620" width="300" height="30" as="geometry" />
        </mxCell>
        <mxCell id="1VugjeR8jfL0UXTWfKwZ-111" value="" style="endArrow=classic;html=1;rounded=0;exitX=0.5;exitY=-0.333;exitDx=0;exitDy=0;exitPerimeter=0;entryX=0.5;entryY=1;entryDx=0;entryDy=0;strokeWidth=4;" edge="1" parent="1" source="1VugjeR8jfL0UXTWfKwZ-110" target="1VugjeR8jfL0UXTWfKwZ-97">
          <mxGeometry width="50" height="50" relative="1" as="geometry">
            <mxPoint x="1730" y="380" as="sourcePoint" />
            <mxPoint x="1780" y="330" as="targetPoint" />
          </mxGeometry>
        </mxCell>
        <mxCell id="1VugjeR8jfL0UXTWfKwZ-112" value="0" style="rounded=0;whiteSpace=wrap;html=1;strokeWidth=4;fontSize=68;fillColor=#bac8d3;strokeColor=#23445d;" vertex="1" parent="1">
          <mxGeometry x="200" y="880" width="120" height="120" as="geometry" />
        </mxCell>
        <mxCell id="1VugjeR8jfL0UXTWfKwZ-113" value="1" style="rounded=0;whiteSpace=wrap;html=1;strokeWidth=4;fontSize=68;" vertex="1" parent="1">
          <mxGeometry x="320" y="880" width="120" height="120" as="geometry" />
        </mxCell>
        <mxCell id="1VugjeR8jfL0UXTWfKwZ-114" value="0" style="rounded=0;whiteSpace=wrap;html=1;strokeWidth=4;fontSize=68;" vertex="1" parent="1">
          <mxGeometry x="440" y="880" width="120" height="120" as="geometry" />
        </mxCell>
        <mxCell id="1VugjeR8jfL0UXTWfKwZ-115" value="1" style="rounded=0;whiteSpace=wrap;html=1;strokeWidth=4;fontSize=68;" vertex="1" parent="1">
          <mxGeometry x="560" y="880" width="120" height="120" as="geometry" />
        </mxCell>
        <mxCell id="1VugjeR8jfL0UXTWfKwZ-116" value="0" style="rounded=0;whiteSpace=wrap;html=1;strokeWidth=4;fontSize=68;" vertex="1" parent="1">
          <mxGeometry x="680" y="880" width="120" height="120" as="geometry" />
        </mxCell>
        <mxCell id="1VugjeR8jfL0UXTWfKwZ-117" value="0" style="text;html=1;align=center;verticalAlign=middle;whiteSpace=wrap;rounded=0;fontSize=32;" vertex="1" parent="1">
          <mxGeometry x="230" y="840" width="60" height="30" as="geometry" />
        </mxCell>
        <mxCell id="1VugjeR8jfL0UXTWfKwZ-118" value="1" style="text;html=1;align=center;verticalAlign=middle;whiteSpace=wrap;rounded=0;fontSize=32;" vertex="1" parent="1">
          <mxGeometry x="350" y="840" width="60" height="30" as="geometry" />
        </mxCell>
        <mxCell id="1VugjeR8jfL0UXTWfKwZ-119" value="2" style="text;html=1;align=center;verticalAlign=middle;whiteSpace=wrap;rounded=0;fontSize=32;" vertex="1" parent="1">
          <mxGeometry x="470" y="840" width="60" height="30" as="geometry" />
        </mxCell>
        <mxCell id="1VugjeR8jfL0UXTWfKwZ-120" value="3" style="text;html=1;align=center;verticalAlign=middle;whiteSpace=wrap;rounded=0;fontSize=32;" vertex="1" parent="1">
          <mxGeometry x="590" y="840" width="60" height="30" as="geometry" />
        </mxCell>
        <mxCell id="1VugjeR8jfL0UXTWfKwZ-121" value="4" style="text;html=1;align=center;verticalAlign=middle;whiteSpace=wrap;rounded=0;fontSize=32;" vertex="1" parent="1">
          <mxGeometry x="710" y="840" width="60" height="30" as="geometry" />
        </mxCell>
        <mxCell id="1VugjeR8jfL0UXTWfKwZ-122" value="0" style="rounded=0;whiteSpace=wrap;html=1;strokeWidth=4;fontSize=68;" vertex="1" parent="1">
          <mxGeometry x="800" y="880" width="120" height="120" as="geometry" />
        </mxCell>
        <mxCell id="1VugjeR8jfL0UXTWfKwZ-123" value="5" style="text;html=1;align=center;verticalAlign=middle;whiteSpace=wrap;rounded=0;fontSize=32;" vertex="1" parent="1">
          <mxGeometry x="830" y="840" width="60" height="30" as="geometry" />
        </mxCell>
        <mxCell id="1VugjeR8jfL0UXTWfKwZ-124" value="1" style="rounded=0;whiteSpace=wrap;html=1;strokeWidth=4;fontSize=68;" vertex="1" parent="1">
          <mxGeometry x="920" y="880" width="120" height="120" as="geometry" />
        </mxCell>
        <mxCell id="1VugjeR8jfL0UXTWfKwZ-125" value="6" style="text;html=1;align=center;verticalAlign=middle;whiteSpace=wrap;rounded=0;fontSize=32;" vertex="1" parent="1">
          <mxGeometry x="950" y="840" width="60" height="30" as="geometry" />
        </mxCell>
        <mxCell id="1VugjeR8jfL0UXTWfKwZ-126" value="id_ticket = 3" style="text;html=1;align=center;verticalAlign=middle;whiteSpace=wrap;rounded=0;fontSize=48;" vertex="1" parent="1">
          <mxGeometry x="470" y="1170" width="300" height="30" as="geometry" />
        </mxCell>
        <mxCell id="1VugjeR8jfL0UXTWfKwZ-127" value="" style="endArrow=classic;html=1;rounded=0;exitX=0.5;exitY=-0.333;exitDx=0;exitDy=0;exitPerimeter=0;entryX=0.5;entryY=1;entryDx=0;entryDy=0;strokeWidth=4;" edge="1" parent="1" source="1VugjeR8jfL0UXTWfKwZ-126" target="1VugjeR8jfL0UXTWfKwZ-115">
          <mxGeometry width="50" height="50" relative="1" as="geometry">
            <mxPoint x="770" y="940" as="sourcePoint" />
            <mxPoint x="820" y="890" as="targetPoint" />
          </mxGeometry>
        </mxCell>
        <mxCell id="1VugjeR8jfL0UXTWfKwZ-128" value="0" style="rounded=0;whiteSpace=wrap;html=1;strokeWidth=4;fontSize=68;fillColor=#bac8d3;strokeColor=#23445d;" vertex="1" parent="1">
          <mxGeometry x="1160" y="880" width="120" height="120" as="geometry" />
        </mxCell>
        <mxCell id="1VugjeR8jfL0UXTWfKwZ-129" value="1" style="rounded=0;whiteSpace=wrap;html=1;strokeWidth=4;fontSize=68;" vertex="1" parent="1">
          <mxGeometry x="1280" y="880" width="120" height="120" as="geometry" />
        </mxCell>
        <mxCell id="1VugjeR8jfL0UXTWfKwZ-130" value="0" style="rounded=0;whiteSpace=wrap;html=1;strokeWidth=4;fontSize=68;" vertex="1" parent="1">
          <mxGeometry x="1400" y="880" width="120" height="120" as="geometry" />
        </mxCell>
        <mxCell id="1VugjeR8jfL0UXTWfKwZ-131" value="1" style="rounded=0;whiteSpace=wrap;html=1;strokeWidth=4;fontSize=68;" vertex="1" parent="1">
          <mxGeometry x="1520" y="880" width="120" height="120" as="geometry" />
        </mxCell>
        <mxCell id="1VugjeR8jfL0UXTWfKwZ-132" value="0" style="rounded=0;whiteSpace=wrap;html=1;strokeWidth=4;fontSize=68;" vertex="1" parent="1">
          <mxGeometry x="1640" y="880" width="120" height="120" as="geometry" />
        </mxCell>
        <mxCell id="1VugjeR8jfL0UXTWfKwZ-133" value="0" style="text;html=1;align=center;verticalAlign=middle;whiteSpace=wrap;rounded=0;fontSize=32;" vertex="1" parent="1">
          <mxGeometry x="1190" y="840" width="60" height="30" as="geometry" />
        </mxCell>
        <mxCell id="1VugjeR8jfL0UXTWfKwZ-134" value="1" style="text;html=1;align=center;verticalAlign=middle;whiteSpace=wrap;rounded=0;fontSize=32;" vertex="1" parent="1">
          <mxGeometry x="1310" y="840" width="60" height="30" as="geometry" />
        </mxCell>
        <mxCell id="1VugjeR8jfL0UXTWfKwZ-135" value="2" style="text;html=1;align=center;verticalAlign=middle;whiteSpace=wrap;rounded=0;fontSize=32;" vertex="1" parent="1">
          <mxGeometry x="1430" y="840" width="60" height="30" as="geometry" />
        </mxCell>
        <mxCell id="1VugjeR8jfL0UXTWfKwZ-136" value="3" style="text;html=1;align=center;verticalAlign=middle;whiteSpace=wrap;rounded=0;fontSize=32;" vertex="1" parent="1">
          <mxGeometry x="1550" y="840" width="60" height="30" as="geometry" />
        </mxCell>
        <mxCell id="1VugjeR8jfL0UXTWfKwZ-137" value="4" style="text;html=1;align=center;verticalAlign=middle;whiteSpace=wrap;rounded=0;fontSize=32;" vertex="1" parent="1">
          <mxGeometry x="1670" y="840" width="60" height="30" as="geometry" />
        </mxCell>
        <mxCell id="1VugjeR8jfL0UXTWfKwZ-138" value="0" style="rounded=0;whiteSpace=wrap;html=1;strokeWidth=4;fontSize=68;" vertex="1" parent="1">
          <mxGeometry x="1760" y="880" width="120" height="120" as="geometry" />
        </mxCell>
        <mxCell id="1VugjeR8jfL0UXTWfKwZ-139" value="5" style="text;html=1;align=center;verticalAlign=middle;whiteSpace=wrap;rounded=0;fontSize=32;" vertex="1" parent="1">
          <mxGeometry x="1790" y="840" width="60" height="30" as="geometry" />
        </mxCell>
        <mxCell id="1VugjeR8jfL0UXTWfKwZ-140" value="2" style="rounded=0;whiteSpace=wrap;html=1;strokeWidth=4;fontSize=68;" vertex="1" parent="1">
          <mxGeometry x="1880" y="880" width="120" height="120" as="geometry" />
        </mxCell>
        <mxCell id="1VugjeR8jfL0UXTWfKwZ-141" value="6" style="text;html=1;align=center;verticalAlign=middle;whiteSpace=wrap;rounded=0;fontSize=32;" vertex="1" parent="1">
          <mxGeometry x="1910" y="840" width="60" height="30" as="geometry" />
        </mxCell>
        <mxCell id="1VugjeR8jfL0UXTWfKwZ-142" value="id_ticket = 6" style="text;html=1;align=center;verticalAlign=middle;whiteSpace=wrap;rounded=0;fontSize=48;" vertex="1" parent="1">
          <mxGeometry x="1430" y="1180" width="300" height="30" as="geometry" />
        </mxCell>
        <mxCell id="1VugjeR8jfL0UXTWfKwZ-143" value="" style="endArrow=classic;html=1;rounded=0;exitX=0.5;exitY=-0.333;exitDx=0;exitDy=0;exitPerimeter=0;entryX=0.5;entryY=1;entryDx=0;entryDy=0;strokeWidth=4;" edge="1" parent="1" source="1VugjeR8jfL0UXTWfKwZ-142" target="1VugjeR8jfL0UXTWfKwZ-140">
          <mxGeometry width="50" height="50" relative="1" as="geometry">
            <mxPoint x="1730" y="940" as="sourcePoint" />
            <mxPoint x="1780" y="890" as="targetPoint" />
          </mxGeometry>
        </mxCell>
        <mxCell id="1VugjeR8jfL0UXTWfKwZ-160" value="0" style="rounded=0;whiteSpace=wrap;html=1;strokeWidth=4;fontSize=68;fillColor=#bac8d3;strokeColor=#23445d;" vertex="1" parent="1">
          <mxGeometry x="200" y="1400" width="120" height="120" as="geometry" />
        </mxCell>
        <mxCell id="1VugjeR8jfL0UXTWfKwZ-161" value="1" style="rounded=0;whiteSpace=wrap;html=1;strokeWidth=4;fontSize=68;" vertex="1" parent="1">
          <mxGeometry x="320" y="1400" width="120" height="120" as="geometry" />
        </mxCell>
        <mxCell id="1VugjeR8jfL0UXTWfKwZ-162" value="0" style="rounded=0;whiteSpace=wrap;html=1;strokeWidth=4;fontSize=68;" vertex="1" parent="1">
          <mxGeometry x="440" y="1400" width="120" height="120" as="geometry" />
        </mxCell>
        <mxCell id="1VugjeR8jfL0UXTWfKwZ-163" value="1" style="rounded=0;whiteSpace=wrap;html=1;strokeWidth=4;fontSize=68;" vertex="1" parent="1">
          <mxGeometry x="560" y="1400" width="120" height="120" as="geometry" />
        </mxCell>
        <mxCell id="1VugjeR8jfL0UXTWfKwZ-164" value="0" style="rounded=0;whiteSpace=wrap;html=1;strokeWidth=4;fontSize=68;" vertex="1" parent="1">
          <mxGeometry x="680" y="1400" width="120" height="120" as="geometry" />
        </mxCell>
        <mxCell id="1VugjeR8jfL0UXTWfKwZ-165" value="0" style="text;html=1;align=center;verticalAlign=middle;whiteSpace=wrap;rounded=0;fontSize=32;" vertex="1" parent="1">
          <mxGeometry x="230" y="1360" width="60" height="30" as="geometry" />
        </mxCell>
        <mxCell id="1VugjeR8jfL0UXTWfKwZ-166" value="1" style="text;html=1;align=center;verticalAlign=middle;whiteSpace=wrap;rounded=0;fontSize=32;" vertex="1" parent="1">
          <mxGeometry x="350" y="1360" width="60" height="30" as="geometry" />
        </mxCell>
        <mxCell id="1VugjeR8jfL0UXTWfKwZ-167" value="2" style="text;html=1;align=center;verticalAlign=middle;whiteSpace=wrap;rounded=0;fontSize=32;" vertex="1" parent="1">
          <mxGeometry x="470" y="1360" width="60" height="30" as="geometry" />
        </mxCell>
        <mxCell id="1VugjeR8jfL0UXTWfKwZ-168" value="3" style="text;html=1;align=center;verticalAlign=middle;whiteSpace=wrap;rounded=0;fontSize=32;" vertex="1" parent="1">
          <mxGeometry x="590" y="1360" width="60" height="30" as="geometry" />
        </mxCell>
        <mxCell id="1VugjeR8jfL0UXTWfKwZ-169" value="4" style="text;html=1;align=center;verticalAlign=middle;whiteSpace=wrap;rounded=0;fontSize=32;" vertex="1" parent="1">
          <mxGeometry x="710" y="1360" width="60" height="30" as="geometry" />
        </mxCell>
        <mxCell id="1VugjeR8jfL0UXTWfKwZ-170" value="0" style="rounded=0;whiteSpace=wrap;html=1;strokeWidth=4;fontSize=68;" vertex="1" parent="1">
          <mxGeometry x="800" y="1400" width="120" height="120" as="geometry" />
        </mxCell>
        <mxCell id="1VugjeR8jfL0UXTWfKwZ-171" value="5" style="text;html=1;align=center;verticalAlign=middle;whiteSpace=wrap;rounded=0;fontSize=32;" vertex="1" parent="1">
          <mxGeometry x="830" y="1360" width="60" height="30" as="geometry" />
        </mxCell>
        <mxCell id="1VugjeR8jfL0UXTWfKwZ-172" value="3" style="rounded=0;whiteSpace=wrap;html=1;strokeWidth=4;fontSize=68;" vertex="1" parent="1">
          <mxGeometry x="920" y="1400" width="120" height="120" as="geometry" />
        </mxCell>
        <mxCell id="1VugjeR8jfL0UXTWfKwZ-173" value="6" style="text;html=1;align=center;verticalAlign=middle;whiteSpace=wrap;rounded=0;fontSize=32;" vertex="1" parent="1">
          <mxGeometry x="950" y="1360" width="60" height="30" as="geometry" />
        </mxCell>
        <mxCell id="1VugjeR8jfL0UXTWfKwZ-174" value="id_ticket = 6" style="text;html=1;align=center;verticalAlign=middle;whiteSpace=wrap;rounded=0;fontSize=48;" vertex="1" parent="1">
          <mxGeometry x="470" y="1700" width="300" height="30" as="geometry" />
        </mxCell>
        <mxCell id="1VugjeR8jfL0UXTWfKwZ-175" value="" style="endArrow=classic;html=1;rounded=0;exitX=0.5;exitY=-0.333;exitDx=0;exitDy=0;exitPerimeter=0;entryX=0.417;entryY=1.033;entryDx=0;entryDy=0;strokeWidth=4;entryPerimeter=0;" edge="1" parent="1" source="1VugjeR8jfL0UXTWfKwZ-174" target="1VugjeR8jfL0UXTWfKwZ-172">
          <mxGeometry width="50" height="50" relative="1" as="geometry">
            <mxPoint x="770" y="1460" as="sourcePoint" />
            <mxPoint x="820" y="1410" as="targetPoint" />
          </mxGeometry>
        </mxCell>
        <mxCell id="1VugjeR8jfL0UXTWfKwZ-176" value="0" style="rounded=0;whiteSpace=wrap;html=1;strokeWidth=4;fontSize=68;fillColor=#bac8d3;strokeColor=#23445d;" vertex="1" parent="1">
          <mxGeometry x="1160" y="1400" width="120" height="120" as="geometry" />
        </mxCell>
        <mxCell id="1VugjeR8jfL0UXTWfKwZ-177" value="1" style="rounded=0;whiteSpace=wrap;html=1;strokeWidth=4;fontSize=68;" vertex="1" parent="1">
          <mxGeometry x="1280" y="1400" width="120" height="120" as="geometry" />
        </mxCell>
        <mxCell id="1VugjeR8jfL0UXTWfKwZ-178" value="0" style="rounded=0;whiteSpace=wrap;html=1;strokeWidth=4;fontSize=68;" vertex="1" parent="1">
          <mxGeometry x="1400" y="1400" width="120" height="120" as="geometry" />
        </mxCell>
        <mxCell id="1VugjeR8jfL0UXTWfKwZ-179" value="1" style="rounded=0;whiteSpace=wrap;html=1;strokeWidth=4;fontSize=68;" vertex="1" parent="1">
          <mxGeometry x="1520" y="1400" width="120" height="120" as="geometry" />
        </mxCell>
        <mxCell id="1VugjeR8jfL0UXTWfKwZ-180" value="1" style="rounded=0;whiteSpace=wrap;html=1;strokeWidth=4;fontSize=68;" vertex="1" parent="1">
          <mxGeometry x="1640" y="1400" width="120" height="120" as="geometry" />
        </mxCell>
        <mxCell id="1VugjeR8jfL0UXTWfKwZ-181" value="0" style="text;html=1;align=center;verticalAlign=middle;whiteSpace=wrap;rounded=0;fontSize=32;" vertex="1" parent="1">
          <mxGeometry x="1190" y="1360" width="60" height="30" as="geometry" />
        </mxCell>
        <mxCell id="1VugjeR8jfL0UXTWfKwZ-182" value="1" style="text;html=1;align=center;verticalAlign=middle;whiteSpace=wrap;rounded=0;fontSize=32;" vertex="1" parent="1">
          <mxGeometry x="1310" y="1360" width="60" height="30" as="geometry" />
        </mxCell>
        <mxCell id="1VugjeR8jfL0UXTWfKwZ-183" value="2" style="text;html=1;align=center;verticalAlign=middle;whiteSpace=wrap;rounded=0;fontSize=32;" vertex="1" parent="1">
          <mxGeometry x="1430" y="1360" width="60" height="30" as="geometry" />
        </mxCell>
        <mxCell id="1VugjeR8jfL0UXTWfKwZ-184" value="3" style="text;html=1;align=center;verticalAlign=middle;whiteSpace=wrap;rounded=0;fontSize=32;" vertex="1" parent="1">
          <mxGeometry x="1550" y="1360" width="60" height="30" as="geometry" />
        </mxCell>
        <mxCell id="1VugjeR8jfL0UXTWfKwZ-185" value="4" style="text;html=1;align=center;verticalAlign=middle;whiteSpace=wrap;rounded=0;fontSize=32;" vertex="1" parent="1">
          <mxGeometry x="1670" y="1360" width="60" height="30" as="geometry" />
        </mxCell>
        <mxCell id="1VugjeR8jfL0UXTWfKwZ-186" value="0" style="rounded=0;whiteSpace=wrap;html=1;strokeWidth=4;fontSize=68;" vertex="1" parent="1">
          <mxGeometry x="1760" y="1400" width="120" height="120" as="geometry" />
        </mxCell>
        <mxCell id="1VugjeR8jfL0UXTWfKwZ-187" value="5" style="text;html=1;align=center;verticalAlign=middle;whiteSpace=wrap;rounded=0;fontSize=32;" vertex="1" parent="1">
          <mxGeometry x="1790" y="1360" width="60" height="30" as="geometry" />
        </mxCell>
        <mxCell id="1VugjeR8jfL0UXTWfKwZ-188" value="3" style="rounded=0;whiteSpace=wrap;html=1;strokeWidth=4;fontSize=68;" vertex="1" parent="1">
          <mxGeometry x="1880" y="1400" width="120" height="120" as="geometry" />
        </mxCell>
        <mxCell id="1VugjeR8jfL0UXTWfKwZ-189" value="6" style="text;html=1;align=center;verticalAlign=middle;whiteSpace=wrap;rounded=0;fontSize=32;" vertex="1" parent="1">
          <mxGeometry x="1910" y="1360" width="60" height="30" as="geometry" />
        </mxCell>
        <mxCell id="1VugjeR8jfL0UXTWfKwZ-190" value="id_ticket = 4" style="text;html=1;align=center;verticalAlign=middle;whiteSpace=wrap;rounded=0;fontSize=48;" vertex="1" parent="1">
          <mxGeometry x="1430" y="1700" width="300" height="30" as="geometry" />
        </mxCell>
        <mxCell id="1VugjeR8jfL0UXTWfKwZ-191" value="" style="endArrow=classic;html=1;rounded=0;exitX=0.5;exitY=-0.333;exitDx=0;exitDy=0;exitPerimeter=0;entryX=0.5;entryY=1;entryDx=0;entryDy=0;strokeWidth=4;" edge="1" parent="1" source="1VugjeR8jfL0UXTWfKwZ-190" target="1VugjeR8jfL0UXTWfKwZ-180">
          <mxGeometry width="50" height="50" relative="1" as="geometry">
            <mxPoint x="1730" y="1460" as="sourcePoint" />
            <mxPoint x="1780" y="1410" as="targetPoint" />
          </mxGeometry>
        </mxCell>
        <mxCell id="1VugjeR8jfL0UXTWfKwZ-208" value="0" style="rounded=0;whiteSpace=wrap;html=1;strokeWidth=4;fontSize=68;fillColor=#bac8d3;strokeColor=#23445d;" vertex="1" parent="1">
          <mxGeometry x="200" y="1960" width="120" height="120" as="geometry" />
        </mxCell>
        <mxCell id="1VugjeR8jfL0UXTWfKwZ-209" value="1" style="rounded=0;whiteSpace=wrap;html=1;strokeWidth=4;fontSize=68;" vertex="1" parent="1">
          <mxGeometry x="320" y="1960" width="120" height="120" as="geometry" />
        </mxCell>
        <mxCell id="1VugjeR8jfL0UXTWfKwZ-210" value="1" style="rounded=0;whiteSpace=wrap;html=1;strokeWidth=4;fontSize=68;" vertex="1" parent="1">
          <mxGeometry x="440" y="1960" width="120" height="120" as="geometry" />
        </mxCell>
        <mxCell id="1VugjeR8jfL0UXTWfKwZ-211" value="1" style="rounded=0;whiteSpace=wrap;html=1;strokeWidth=4;fontSize=68;" vertex="1" parent="1">
          <mxGeometry x="560" y="1960" width="120" height="120" as="geometry" />
        </mxCell>
        <mxCell id="1VugjeR8jfL0UXTWfKwZ-212" value="1" style="rounded=0;whiteSpace=wrap;html=1;strokeWidth=4;fontSize=68;" vertex="1" parent="1">
          <mxGeometry x="680" y="1960" width="120" height="120" as="geometry" />
        </mxCell>
        <mxCell id="1VugjeR8jfL0UXTWfKwZ-213" value="0" style="text;html=1;align=center;verticalAlign=middle;whiteSpace=wrap;rounded=0;fontSize=32;" vertex="1" parent="1">
          <mxGeometry x="230" y="1920" width="60" height="30" as="geometry" />
        </mxCell>
        <mxCell id="1VugjeR8jfL0UXTWfKwZ-214" value="1" style="text;html=1;align=center;verticalAlign=middle;whiteSpace=wrap;rounded=0;fontSize=32;" vertex="1" parent="1">
          <mxGeometry x="350" y="1920" width="60" height="30" as="geometry" />
        </mxCell>
        <mxCell id="1VugjeR8jfL0UXTWfKwZ-215" value="2" style="text;html=1;align=center;verticalAlign=middle;whiteSpace=wrap;rounded=0;fontSize=32;" vertex="1" parent="1">
          <mxGeometry x="470" y="1920" width="60" height="30" as="geometry" />
        </mxCell>
        <mxCell id="1VugjeR8jfL0UXTWfKwZ-216" value="3" style="text;html=1;align=center;verticalAlign=middle;whiteSpace=wrap;rounded=0;fontSize=32;" vertex="1" parent="1">
          <mxGeometry x="590" y="1920" width="60" height="30" as="geometry" />
        </mxCell>
        <mxCell id="1VugjeR8jfL0UXTWfKwZ-217" value="4" style="text;html=1;align=center;verticalAlign=middle;whiteSpace=wrap;rounded=0;fontSize=32;" vertex="1" parent="1">
          <mxGeometry x="710" y="1920" width="60" height="30" as="geometry" />
        </mxCell>
        <mxCell id="1VugjeR8jfL0UXTWfKwZ-218" value="0" style="rounded=0;whiteSpace=wrap;html=1;strokeWidth=4;fontSize=68;" vertex="1" parent="1">
          <mxGeometry x="800" y="1960" width="120" height="120" as="geometry" />
        </mxCell>
        <mxCell id="1VugjeR8jfL0UXTWfKwZ-219" value="5" style="text;html=1;align=center;verticalAlign=middle;whiteSpace=wrap;rounded=0;fontSize=32;" vertex="1" parent="1">
          <mxGeometry x="830" y="1920" width="60" height="30" as="geometry" />
        </mxCell>
        <mxCell id="1VugjeR8jfL0UXTWfKwZ-220" value="3" style="rounded=0;whiteSpace=wrap;html=1;strokeWidth=4;fontSize=68;" vertex="1" parent="1">
          <mxGeometry x="920" y="1960" width="120" height="120" as="geometry" />
        </mxCell>
        <mxCell id="1VugjeR8jfL0UXTWfKwZ-221" value="6" style="text;html=1;align=center;verticalAlign=middle;whiteSpace=wrap;rounded=0;fontSize=32;" vertex="1" parent="1">
          <mxGeometry x="950" y="1920" width="60" height="30" as="geometry" />
        </mxCell>
        <mxCell id="1VugjeR8jfL0UXTWfKwZ-222" value="id_ticket = 2" style="text;html=1;align=center;verticalAlign=middle;whiteSpace=wrap;rounded=0;fontSize=48;" vertex="1" parent="1">
          <mxGeometry x="470" y="2260" width="300" height="30" as="geometry" />
        </mxCell>
        <mxCell id="1VugjeR8jfL0UXTWfKwZ-223" value="" style="endArrow=classic;html=1;rounded=0;exitX=0.5;exitY=-0.333;exitDx=0;exitDy=0;exitPerimeter=0;entryX=0.5;entryY=1;entryDx=0;entryDy=0;strokeWidth=4;" edge="1" parent="1" source="1VugjeR8jfL0UXTWfKwZ-222" target="1VugjeR8jfL0UXTWfKwZ-210">
          <mxGeometry width="50" height="50" relative="1" as="geometry">
            <mxPoint x="770" y="2020" as="sourcePoint" />
            <mxPoint x="820" y="1970" as="targetPoint" />
          </mxGeometry>
        </mxCell>
        <mxCell id="1VugjeR8jfL0UXTWfKwZ-224" value="0" style="rounded=0;whiteSpace=wrap;html=1;strokeWidth=4;fontSize=68;fillColor=#bac8d3;strokeColor=#23445d;" vertex="1" parent="1">
          <mxGeometry x="1160" y="1960" width="120" height="120" as="geometry" />
        </mxCell>
        <mxCell id="1VugjeR8jfL0UXTWfKwZ-225" value="1" style="rounded=0;whiteSpace=wrap;html=1;strokeWidth=4;fontSize=68;" vertex="1" parent="1">
          <mxGeometry x="1280" y="1960" width="120" height="120" as="geometry" />
        </mxCell>
        <mxCell id="1VugjeR8jfL0UXTWfKwZ-226" value="1" style="rounded=0;whiteSpace=wrap;html=1;strokeWidth=4;fontSize=68;" vertex="1" parent="1">
          <mxGeometry x="1400" y="1960" width="120" height="120" as="geometry" />
        </mxCell>
        <mxCell id="1VugjeR8jfL0UXTWfKwZ-227" value="2" style="rounded=0;whiteSpace=wrap;html=1;strokeWidth=4;fontSize=68;" vertex="1" parent="1">
          <mxGeometry x="1520" y="1960" width="120" height="120" as="geometry" />
        </mxCell>
        <mxCell id="1VugjeR8jfL0UXTWfKwZ-228" value="1" style="rounded=0;whiteSpace=wrap;html=1;strokeWidth=4;fontSize=68;" vertex="1" parent="1">
          <mxGeometry x="1640" y="1960" width="120" height="120" as="geometry" />
        </mxCell>
        <mxCell id="1VugjeR8jfL0UXTWfKwZ-229" value="0" style="text;html=1;align=center;verticalAlign=middle;whiteSpace=wrap;rounded=0;fontSize=32;" vertex="1" parent="1">
          <mxGeometry x="1190" y="1920" width="60" height="30" as="geometry" />
        </mxCell>
        <mxCell id="1VugjeR8jfL0UXTWfKwZ-230" value="1" style="text;html=1;align=center;verticalAlign=middle;whiteSpace=wrap;rounded=0;fontSize=32;" vertex="1" parent="1">
          <mxGeometry x="1310" y="1920" width="60" height="30" as="geometry" />
        </mxCell>
        <mxCell id="1VugjeR8jfL0UXTWfKwZ-231" value="2" style="text;html=1;align=center;verticalAlign=middle;whiteSpace=wrap;rounded=0;fontSize=32;" vertex="1" parent="1">
          <mxGeometry x="1430" y="1920" width="60" height="30" as="geometry" />
        </mxCell>
        <mxCell id="1VugjeR8jfL0UXTWfKwZ-232" value="3" style="text;html=1;align=center;verticalAlign=middle;whiteSpace=wrap;rounded=0;fontSize=32;" vertex="1" parent="1">
          <mxGeometry x="1550" y="1920" width="60" height="30" as="geometry" />
        </mxCell>
        <mxCell id="1VugjeR8jfL0UXTWfKwZ-233" value="4" style="text;html=1;align=center;verticalAlign=middle;whiteSpace=wrap;rounded=0;fontSize=32;" vertex="1" parent="1">
          <mxGeometry x="1670" y="1920" width="60" height="30" as="geometry" />
        </mxCell>
        <mxCell id="1VugjeR8jfL0UXTWfKwZ-234" value="0" style="rounded=0;whiteSpace=wrap;html=1;strokeWidth=4;fontSize=68;" vertex="1" parent="1">
          <mxGeometry x="1760" y="1960" width="120" height="120" as="geometry" />
        </mxCell>
        <mxCell id="1VugjeR8jfL0UXTWfKwZ-235" value="5" style="text;html=1;align=center;verticalAlign=middle;whiteSpace=wrap;rounded=0;fontSize=32;" vertex="1" parent="1">
          <mxGeometry x="1790" y="1920" width="60" height="30" as="geometry" />
        </mxCell>
        <mxCell id="1VugjeR8jfL0UXTWfKwZ-236" value="3" style="rounded=0;whiteSpace=wrap;html=1;strokeWidth=4;fontSize=68;" vertex="1" parent="1">
          <mxGeometry x="1880" y="1960" width="120" height="120" as="geometry" />
        </mxCell>
        <mxCell id="1VugjeR8jfL0UXTWfKwZ-237" value="6" style="text;html=1;align=center;verticalAlign=middle;whiteSpace=wrap;rounded=0;fontSize=32;" vertex="1" parent="1">
          <mxGeometry x="1910" y="1920" width="60" height="30" as="geometry" />
        </mxCell>
        <mxCell id="1VugjeR8jfL0UXTWfKwZ-238" value="id_ticket = 3" style="text;html=1;align=center;verticalAlign=middle;whiteSpace=wrap;rounded=0;fontSize=48;" vertex="1" parent="1">
          <mxGeometry x="1430" y="2260" width="300" height="30" as="geometry" />
        </mxCell>
        <mxCell id="1VugjeR8jfL0UXTWfKwZ-239" value="" style="endArrow=classic;html=1;rounded=0;exitX=0.5;exitY=-0.333;exitDx=0;exitDy=0;exitPerimeter=0;entryX=0.5;entryY=1;entryDx=0;entryDy=0;strokeWidth=4;" edge="1" parent="1" source="1VugjeR8jfL0UXTWfKwZ-238" target="1VugjeR8jfL0UXTWfKwZ-227">
          <mxGeometry width="50" height="50" relative="1" as="geometry">
            <mxPoint x="1730" y="2020" as="sourcePoint" />
            <mxPoint x="1780" y="1970" as="targetPoint" />
          </mxGeometry>
        </mxCell>
        <mxCell id="1VugjeR8jfL0UXTWfKwZ-240" value="0" style="rounded=0;whiteSpace=wrap;html=1;strokeWidth=4;fontSize=68;fillColor=#bac8d3;strokeColor=#23445d;" vertex="1" parent="1">
          <mxGeometry x="200" y="2480" width="120" height="120" as="geometry" />
        </mxCell>
        <mxCell id="1VugjeR8jfL0UXTWfKwZ-241" value="2" style="rounded=0;whiteSpace=wrap;html=1;strokeWidth=4;fontSize=68;" vertex="1" parent="1">
          <mxGeometry x="320" y="2480" width="120" height="120" as="geometry" />
        </mxCell>
        <mxCell id="1VugjeR8jfL0UXTWfKwZ-242" value="1" style="rounded=0;whiteSpace=wrap;html=1;strokeWidth=4;fontSize=68;" vertex="1" parent="1">
          <mxGeometry x="440" y="2480" width="120" height="120" as="geometry" />
        </mxCell>
        <mxCell id="1VugjeR8jfL0UXTWfKwZ-243" value="2" style="rounded=0;whiteSpace=wrap;html=1;strokeWidth=4;fontSize=68;" vertex="1" parent="1">
          <mxGeometry x="560" y="2480" width="120" height="120" as="geometry" />
        </mxCell>
        <mxCell id="1VugjeR8jfL0UXTWfKwZ-244" value="1" style="rounded=0;whiteSpace=wrap;html=1;strokeWidth=4;fontSize=68;" vertex="1" parent="1">
          <mxGeometry x="680" y="2480" width="120" height="120" as="geometry" />
        </mxCell>
        <mxCell id="1VugjeR8jfL0UXTWfKwZ-245" value="0" style="text;html=1;align=center;verticalAlign=middle;whiteSpace=wrap;rounded=0;fontSize=32;" vertex="1" parent="1">
          <mxGeometry x="230" y="2440" width="60" height="30" as="geometry" />
        </mxCell>
        <mxCell id="1VugjeR8jfL0UXTWfKwZ-246" value="1" style="text;html=1;align=center;verticalAlign=middle;whiteSpace=wrap;rounded=0;fontSize=32;" vertex="1" parent="1">
          <mxGeometry x="350" y="2440" width="60" height="30" as="geometry" />
        </mxCell>
        <mxCell id="1VugjeR8jfL0UXTWfKwZ-247" value="2" style="text;html=1;align=center;verticalAlign=middle;whiteSpace=wrap;rounded=0;fontSize=32;" vertex="1" parent="1">
          <mxGeometry x="470" y="2440" width="60" height="30" as="geometry" />
        </mxCell>
        <mxCell id="1VugjeR8jfL0UXTWfKwZ-248" value="3" style="text;html=1;align=center;verticalAlign=middle;whiteSpace=wrap;rounded=0;fontSize=32;" vertex="1" parent="1">
          <mxGeometry x="590" y="2440" width="60" height="30" as="geometry" />
        </mxCell>
        <mxCell id="1VugjeR8jfL0UXTWfKwZ-249" value="4" style="text;html=1;align=center;verticalAlign=middle;whiteSpace=wrap;rounded=0;fontSize=32;" vertex="1" parent="1">
          <mxGeometry x="710" y="2440" width="60" height="30" as="geometry" />
        </mxCell>
        <mxCell id="1VugjeR8jfL0UXTWfKwZ-250" value="0" style="rounded=0;whiteSpace=wrap;html=1;strokeWidth=4;fontSize=68;" vertex="1" parent="1">
          <mxGeometry x="800" y="2480" width="120" height="120" as="geometry" />
        </mxCell>
        <mxCell id="1VugjeR8jfL0UXTWfKwZ-251" value="5" style="text;html=1;align=center;verticalAlign=middle;whiteSpace=wrap;rounded=0;fontSize=32;" vertex="1" parent="1">
          <mxGeometry x="830" y="2440" width="60" height="30" as="geometry" />
        </mxCell>
        <mxCell id="1VugjeR8jfL0UXTWfKwZ-252" value="3" style="rounded=0;whiteSpace=wrap;html=1;strokeWidth=4;fontSize=68;" vertex="1" parent="1">
          <mxGeometry x="920" y="2480" width="120" height="120" as="geometry" />
        </mxCell>
        <mxCell id="1VugjeR8jfL0UXTWfKwZ-253" value="6" style="text;html=1;align=center;verticalAlign=middle;whiteSpace=wrap;rounded=0;fontSize=32;" vertex="1" parent="1">
          <mxGeometry x="950" y="2440" width="60" height="30" as="geometry" />
        </mxCell>
        <mxCell id="1VugjeR8jfL0UXTWfKwZ-254" value="id_ticket = 1" style="text;html=1;align=center;verticalAlign=middle;whiteSpace=wrap;rounded=0;fontSize=48;" vertex="1" parent="1">
          <mxGeometry x="470" y="2780" width="300" height="30" as="geometry" />
        </mxCell>
        <mxCell id="1VugjeR8jfL0UXTWfKwZ-255" value="" style="endArrow=classic;html=1;rounded=0;exitX=0.5;exitY=-0.333;exitDx=0;exitDy=0;exitPerimeter=0;entryX=0.5;entryY=1;entryDx=0;entryDy=0;strokeWidth=4;" edge="1" parent="1" source="1VugjeR8jfL0UXTWfKwZ-254" target="1VugjeR8jfL0UXTWfKwZ-241">
          <mxGeometry width="50" height="50" relative="1" as="geometry">
            <mxPoint x="770" y="2540" as="sourcePoint" />
            <mxPoint x="820" y="2490" as="targetPoint" />
          </mxGeometry>
        </mxCell>
        <mxCell id="1VugjeR8jfL0UXTWfKwZ-256" value="0" style="rounded=0;whiteSpace=wrap;html=1;strokeWidth=4;fontSize=68;fillColor=#bac8d3;strokeColor=#23445d;" vertex="1" parent="1">
          <mxGeometry x="1160" y="2480" width="120" height="120" as="geometry" />
        </mxCell>
        <mxCell id="1VugjeR8jfL0UXTWfKwZ-257" value="2" style="rounded=0;whiteSpace=wrap;html=1;strokeWidth=4;fontSize=68;" vertex="1" parent="1">
          <mxGeometry x="1280" y="2480" width="120" height="120" as="geometry" />
        </mxCell>
        <mxCell id="1VugjeR8jfL0UXTWfKwZ-258" value="2" style="rounded=0;whiteSpace=wrap;html=1;strokeWidth=4;fontSize=68;" vertex="1" parent="1">
          <mxGeometry x="1400" y="2480" width="120" height="120" as="geometry" />
        </mxCell>
        <mxCell id="1VugjeR8jfL0UXTWfKwZ-259" value="2" style="rounded=0;whiteSpace=wrap;html=1;strokeWidth=4;fontSize=68;" vertex="1" parent="1">
          <mxGeometry x="1520" y="2480" width="120" height="120" as="geometry" />
        </mxCell>
        <mxCell id="1VugjeR8jfL0UXTWfKwZ-260" value="1" style="rounded=0;whiteSpace=wrap;html=1;strokeWidth=4;fontSize=68;" vertex="1" parent="1">
          <mxGeometry x="1640" y="2480" width="120" height="120" as="geometry" />
        </mxCell>
        <mxCell id="1VugjeR8jfL0UXTWfKwZ-261" value="0" style="text;html=1;align=center;verticalAlign=middle;whiteSpace=wrap;rounded=0;fontSize=32;" vertex="1" parent="1">
          <mxGeometry x="1190" y="2440" width="60" height="30" as="geometry" />
        </mxCell>
        <mxCell id="1VugjeR8jfL0UXTWfKwZ-262" value="1" style="text;html=1;align=center;verticalAlign=middle;whiteSpace=wrap;rounded=0;fontSize=32;" vertex="1" parent="1">
          <mxGeometry x="1310" y="2440" width="60" height="30" as="geometry" />
        </mxCell>
        <mxCell id="1VugjeR8jfL0UXTWfKwZ-263" value="2" style="text;html=1;align=center;verticalAlign=middle;whiteSpace=wrap;rounded=0;fontSize=32;" vertex="1" parent="1">
          <mxGeometry x="1430" y="2440" width="60" height="30" as="geometry" />
        </mxCell>
        <mxCell id="1VugjeR8jfL0UXTWfKwZ-264" value="3" style="text;html=1;align=center;verticalAlign=middle;whiteSpace=wrap;rounded=0;fontSize=32;" vertex="1" parent="1">
          <mxGeometry x="1550" y="2440" width="60" height="30" as="geometry" />
        </mxCell>
        <mxCell id="1VugjeR8jfL0UXTWfKwZ-265" value="4" style="text;html=1;align=center;verticalAlign=middle;whiteSpace=wrap;rounded=0;fontSize=32;" vertex="1" parent="1">
          <mxGeometry x="1670" y="2440" width="60" height="30" as="geometry" />
        </mxCell>
        <mxCell id="1VugjeR8jfL0UXTWfKwZ-266" value="0" style="rounded=0;whiteSpace=wrap;html=1;strokeWidth=4;fontSize=68;" vertex="1" parent="1">
          <mxGeometry x="1760" y="2480" width="120" height="120" as="geometry" />
        </mxCell>
        <mxCell id="1VugjeR8jfL0UXTWfKwZ-267" value="5" style="text;html=1;align=center;verticalAlign=middle;whiteSpace=wrap;rounded=0;fontSize=32;" vertex="1" parent="1">
          <mxGeometry x="1790" y="2440" width="60" height="30" as="geometry" />
        </mxCell>
        <mxCell id="1VugjeR8jfL0UXTWfKwZ-268" value="3" style="rounded=0;whiteSpace=wrap;html=1;strokeWidth=4;fontSize=68;" vertex="1" parent="1">
          <mxGeometry x="1880" y="2480" width="120" height="120" as="geometry" />
        </mxCell>
        <mxCell id="1VugjeR8jfL0UXTWfKwZ-269" value="6" style="text;html=1;align=center;verticalAlign=middle;whiteSpace=wrap;rounded=0;fontSize=32;" vertex="1" parent="1">
          <mxGeometry x="1910" y="2440" width="60" height="30" as="geometry" />
        </mxCell>
        <mxCell id="1VugjeR8jfL0UXTWfKwZ-270" value="id_ticket = 2" style="text;html=1;align=center;verticalAlign=middle;whiteSpace=wrap;rounded=0;fontSize=48;" vertex="1" parent="1">
          <mxGeometry x="1430" y="2780" width="300" height="30" as="geometry" />
        </mxCell>
        <mxCell id="1VugjeR8jfL0UXTWfKwZ-271" value="" style="endArrow=classic;html=1;rounded=0;exitX=0.5;exitY=-0.333;exitDx=0;exitDy=0;exitPerimeter=0;strokeWidth=4;" edge="1" parent="1" source="1VugjeR8jfL0UXTWfKwZ-270" target="1VugjeR8jfL0UXTWfKwZ-258">
          <mxGeometry width="50" height="50" relative="1" as="geometry">
            <mxPoint x="1730" y="2540" as="sourcePoint" />
            <mxPoint x="1780" y="2490" as="targetPoint" />
          </mxGeometry>
        </mxCell>
        <mxCell id="1VugjeR8jfL0UXTWfKwZ-273" value="i = 0" style="text;html=1;align=center;verticalAlign=middle;whiteSpace=wrap;rounded=0;fontSize=48;fontFamily=Times New Roman;fontStyle=2" vertex="1" parent="1">
          <mxGeometry x="190" y="200" width="120" height="30" as="geometry" />
        </mxCell>
        <mxCell id="1VugjeR8jfL0UXTWfKwZ-275" value="i = 1" style="text;html=1;align=center;verticalAlign=middle;whiteSpace=wrap;rounded=0;fontSize=48;fontFamily=Times New Roman;fontStyle=2" vertex="1" parent="1">
          <mxGeometry x="1155" y="200" width="120" height="30" as="geometry" />
        </mxCell>
        <mxCell id="1VugjeR8jfL0UXTWfKwZ-276" value="i = 2" style="text;html=1;align=center;verticalAlign=middle;whiteSpace=wrap;rounded=0;fontSize=48;fontFamily=Times New Roman;fontStyle=2" vertex="1" parent="1">
          <mxGeometry x="195" y="760" width="120" height="30" as="geometry" />
        </mxCell>
        <mxCell id="1VugjeR8jfL0UXTWfKwZ-277" value="i = 3" style="text;html=1;align=center;verticalAlign=middle;whiteSpace=wrap;rounded=0;fontSize=48;fontFamily=Times New Roman;fontStyle=2" vertex="1" parent="1">
          <mxGeometry x="1160" y="760" width="120" height="30" as="geometry" />
        </mxCell>
        <mxCell id="1VugjeR8jfL0UXTWfKwZ-278" value="i = 4" style="text;html=1;align=center;verticalAlign=middle;whiteSpace=wrap;rounded=0;fontSize=48;fontFamily=Times New Roman;fontStyle=2" vertex="1" parent="1">
          <mxGeometry x="200" y="1280" width="120" height="30" as="geometry" />
        </mxCell>
        <mxCell id="1VugjeR8jfL0UXTWfKwZ-279" value="i = 5" style="text;html=1;align=center;verticalAlign=middle;whiteSpace=wrap;rounded=0;fontSize=48;fontFamily=Times New Roman;fontStyle=2" vertex="1" parent="1">
          <mxGeometry x="1170" y="1280" width="120" height="30" as="geometry" />
        </mxCell>
        <mxCell id="1VugjeR8jfL0UXTWfKwZ-281" value="i = 6" style="text;html=1;align=center;verticalAlign=middle;whiteSpace=wrap;rounded=0;fontSize=48;fontFamily=Times New Roman;fontStyle=2" vertex="1" parent="1">
          <mxGeometry x="200" y="1840" width="120" height="30" as="geometry" />
        </mxCell>
        <mxCell id="1VugjeR8jfL0UXTWfKwZ-282" value="i = 7" style="text;html=1;align=center;verticalAlign=middle;whiteSpace=wrap;rounded=0;fontSize=48;fontFamily=Times New Roman;fontStyle=2" vertex="1" parent="1">
          <mxGeometry x="1170" y="1840" width="120" height="30" as="geometry" />
        </mxCell>
        <mxCell id="1VugjeR8jfL0UXTWfKwZ-283" value="i = 8" style="text;html=1;align=center;verticalAlign=middle;whiteSpace=wrap;rounded=0;fontSize=48;fontFamily=Times New Roman;fontStyle=2" vertex="1" parent="1">
          <mxGeometry x="200" y="2360" width="120" height="30" as="geometry" />
        </mxCell>
        <mxCell id="1VugjeR8jfL0UXTWfKwZ-284" value="i = 9" style="text;html=1;align=center;verticalAlign=middle;whiteSpace=wrap;rounded=0;fontSize=48;fontFamily=Times New Roman;fontStyle=2" vertex="1" parent="1">
          <mxGeometry x="1170" y="2360" width="120" height="30" as="geometry" />
        </mxCell>
        <mxCell id="1VugjeR8jfL0UXTWfKwZ-285" value="tickets" style="text;html=1;align=center;verticalAlign=middle;whiteSpace=wrap;rounded=0;fontSize=48;" vertex="1" parent="1">
          <mxGeometry x="580" y="3095" width="60" height="30" as="geometry" />
        </mxCell>
      </root>
    </mxGraphModel>
  </diagram>
</mxfile>
